<svg xmlns="http://www.w3.org/2000/svg" viewBox="0 0 100 100">
  <defs>
    <clipPath id="c">
      <ellipse cx="50" cy="44" rx="21" ry="23"/>
    </clipPath>
  </defs>
  <rect width="100" height="100" fill="#0f172a" rx="18"/>
  <rect x="45" y="63" width="10" height="25" rx="4" fill="#ea580c"/>
  <ellipse cx="50" cy="44" rx="21" ry="23" fill="#1e293b"/>
  <g clip-path="url(#c)" stroke="#f97316" stroke-width="1.4" opacity="0.55">
    <line x1="29" y1="35" x2="71" y2="35"/>
    <line x1="29" y1="42" x2="71" y2="42"/>
    <line x1="29" y1="49" x2="71" y2="49"/>
    <line x1="29" y1="56" x2="71" y2="56"/>
    <line x1="37" y1="21" x2="37" y2="67"/>
    <line x1="43" y1="21" x2="43" y2="67"/>
    <line x1="50" y1="21" x2="50" y2="67"/>
    <line x1="57" y1="21" x2="57" y2="67"/>
    <line x1="63" y1="21" x2="63" y2="67"/>
  </g>
  <ellipse cx="50" cy="44" rx="21" ry="23" fill="none" stroke="#ea580c" stroke-width="3.5"/>
  <circle cx="75" cy="18" r="9" fill="#f97316"/>
  <path d="M67.5 14 Q72 18 67.5 22" stroke="#0f172a" stroke-width="1.8" fill="none" stroke-linecap="round"/>
  <path d="M82.5 14 Q78 18 82.5 22" stroke="#0f172a" stroke-width="1.8" fill="none" stroke-linecap="round"/>
</svg>
